%TF.GenerationSoftware,KiCad,Pcbnew,(6.0.4-0)*%
%TF.CreationDate,2022-05-20T14:50:06+02:00*%
%TF.ProjectId,Huge-Stepper-Driver,48756765-2d53-4746-9570-7065722d4472,rev?*%
%TF.SameCoordinates,Original*%
%TF.FileFunction,Soldermask,Top*%
%TF.FilePolarity,Negative*%
%FSLAX46Y46*%
G04 Gerber Fmt 4.6, Leading zero omitted, Abs format (unit mm)*
G04 Created by KiCad (PCBNEW (6.0.4-0)) date 2022-05-20 14:50:06*
%MOMM*%
%LPD*%
G01*
G04 APERTURE LIST*
G04 Aperture macros list*
%AMRoundRect*
0 Rectangle with rounded corners*
0 $1 Rounding radius*
0 $2 $3 $4 $5 $6 $7 $8 $9 X,Y pos of 4 corners*
0 Add a 4 corners polygon primitive as box body*
4,1,4,$2,$3,$4,$5,$6,$7,$8,$9,$2,$3,0*
0 Add four circle primitives for the rounded corners*
1,1,$1+$1,$2,$3*
1,1,$1+$1,$4,$5*
1,1,$1+$1,$6,$7*
1,1,$1+$1,$8,$9*
0 Add four rect primitives between the rounded corners*
20,1,$1+$1,$2,$3,$4,$5,0*
20,1,$1+$1,$4,$5,$6,$7,0*
20,1,$1+$1,$6,$7,$8,$9,0*
20,1,$1+$1,$8,$9,$2,$3,0*%
G04 Aperture macros list end*
%ADD10C,0.150000*%
%ADD11R,1.700000X1.700000*%
%ADD12O,1.700000X1.700000*%
%ADD13RoundRect,0.150000X0.587500X0.150000X-0.587500X0.150000X-0.587500X-0.150000X0.587500X-0.150000X0*%
%ADD14RoundRect,0.250000X0.475000X-0.250000X0.475000X0.250000X-0.475000X0.250000X-0.475000X-0.250000X0*%
%ADD15RoundRect,0.250000X-1.500000X-0.550000X1.500000X-0.550000X1.500000X0.550000X-1.500000X0.550000X0*%
%ADD16R,0.600000X0.450000*%
%ADD17R,2.500000X2.500000*%
%ADD18C,2.500000*%
%ADD19RoundRect,0.200000X-0.275000X0.200000X-0.275000X-0.200000X0.275000X-0.200000X0.275000X0.200000X0*%
%ADD20C,2.800000*%
%ADD21R,2.000000X4.500000*%
%ADD22RoundRect,0.250000X0.625000X-0.375000X0.625000X0.375000X-0.625000X0.375000X-0.625000X-0.375000X0*%
%ADD23RoundRect,0.225000X0.225000X0.250000X-0.225000X0.250000X-0.225000X-0.250000X0.225000X-0.250000X0*%
%ADD24RoundRect,0.200000X0.200000X0.275000X-0.200000X0.275000X-0.200000X-0.275000X0.200000X-0.275000X0*%
%ADD25RoundRect,0.200000X0.275000X-0.200000X0.275000X0.200000X-0.275000X0.200000X-0.275000X-0.200000X0*%
%ADD26RoundRect,0.150000X-0.512500X-0.150000X0.512500X-0.150000X0.512500X0.150000X-0.512500X0.150000X0*%
%ADD27R,0.900000X1.000000*%
%ADD28RoundRect,0.218750X0.256250X-0.218750X0.256250X0.218750X-0.256250X0.218750X-0.256250X-0.218750X0*%
%ADD29RoundRect,0.250000X-0.250000X-0.475000X0.250000X-0.475000X0.250000X0.475000X-0.250000X0.475000X0*%
%ADD30R,1.200000X0.900000*%
%ADD31C,3.200000*%
%ADD32RoundRect,0.250000X2.475000X-0.712500X2.475000X0.712500X-2.475000X0.712500X-2.475000X-0.712500X0*%
%ADD33RoundRect,0.225000X0.250000X-0.225000X0.250000X0.225000X-0.250000X0.225000X-0.250000X-0.225000X0*%
%ADD34RoundRect,0.225000X-0.225000X-0.250000X0.225000X-0.250000X0.225000X0.250000X-0.225000X0.250000X0*%
%ADD35RoundRect,0.050000X-0.050000X0.587500X-0.050000X-0.587500X0.050000X-0.587500X0.050000X0.587500X0*%
%ADD36RoundRect,0.050000X-0.587500X-0.050000X0.587500X-0.050000X0.587500X0.050000X-0.587500X0.050000X0*%
%ADD37RoundRect,0.050000X0.050000X-0.587500X0.050000X0.587500X-0.050000X0.587500X-0.050000X-0.587500X0*%
%ADD38RoundRect,0.050000X0.587500X0.050000X-0.587500X0.050000X-0.587500X-0.050000X0.587500X-0.050000X0*%
%ADD39RoundRect,0.155000X-1.395000X1.395000X-1.395000X-1.395000X1.395000X-1.395000X1.395000X1.395000X0*%
%ADD40RoundRect,0.200000X-0.200000X-0.275000X0.200000X-0.275000X0.200000X0.275000X-0.200000X0.275000X0*%
%ADD41RoundRect,0.250000X-0.475000X0.250000X-0.475000X-0.250000X0.475000X-0.250000X0.475000X0.250000X0*%
%ADD42R,1.000000X0.900000*%
%ADD43RoundRect,0.225000X-0.250000X0.225000X-0.250000X-0.225000X0.250000X-0.225000X0.250000X0.225000X0*%
%ADD44C,0.650000*%
%ADD45R,0.600000X1.150000*%
%ADD46R,0.300000X1.150000*%
%ADD47R,0.600000X0.900000*%
%ADD48O,1.050000X2.100000*%
%ADD49O,1.000000X2.000000*%
%ADD50RoundRect,0.225000X0.225000X0.825000X-0.225000X0.825000X-0.225000X-0.825000X0.225000X-0.825000X0*%
%ADD51RoundRect,0.150000X0.650000X0.150000X-0.650000X0.150000X-0.650000X-0.150000X0.650000X-0.150000X0*%
%ADD52R,1.100000X1.100000*%
%ADD53R,2.000000X1.500000*%
%ADD54R,2.000000X3.800000*%
%ADD55RoundRect,0.218750X0.218750X0.256250X-0.218750X0.256250X-0.218750X-0.256250X0.218750X-0.256250X0*%
%ADD56C,1.200000*%
%ADD57RoundRect,0.250000X-0.725000X0.600000X-0.725000X-0.600000X0.725000X-0.600000X0.725000X0.600000X0*%
%ADD58O,1.950000X1.700000*%
%ADD59R,0.900000X1.200000*%
G04 APERTURE END LIST*
D10*
X186280000Y-110870000D02*
X189050000Y-110870000D01*
X189050000Y-110870000D02*
X189050000Y-115290000D01*
X189050000Y-115290000D02*
X186280000Y-115290000D01*
X186280000Y-115290000D02*
X186280000Y-110870000D01*
G36*
X186280000Y-110870000D02*
G01*
X189050000Y-110870000D01*
X189050000Y-115290000D01*
X186280000Y-115290000D01*
X186280000Y-110870000D01*
G37*
X90030000Y-111790000D02*
X92800000Y-111790000D01*
X92800000Y-111790000D02*
X92800000Y-116210000D01*
X92800000Y-116210000D02*
X90030000Y-116210000D01*
X90030000Y-116210000D02*
X90030000Y-111790000D01*
G36*
X90030000Y-111790000D02*
G01*
X92800000Y-111790000D01*
X92800000Y-116210000D01*
X90030000Y-116210000D01*
X90030000Y-111790000D01*
G37*
D11*
%TO.C,U5*%
X131317500Y-91871800D03*
D12*
X133857500Y-91871800D03*
X136397500Y-91871800D03*
X138937500Y-91871800D03*
X141477500Y-91871800D03*
X144017500Y-91871800D03*
X146557500Y-91871800D03*
X149097500Y-91871800D03*
X149097500Y-79171800D03*
X146557500Y-79171800D03*
X144017500Y-79171800D03*
X141477500Y-79171800D03*
X138937500Y-79171800D03*
X136397500Y-79171800D03*
X133857500Y-79171800D03*
X131317500Y-79171800D03*
%TD*%
D13*
%TO.C,Q8*%
X105772900Y-134530000D03*
X105772900Y-132630000D03*
X103897900Y-133580000D03*
%TD*%
D14*
%TO.C,C2*%
X104571200Y-98040200D03*
X104571200Y-96140200D03*
%TD*%
D11*
%TO.C,J4*%
X136460000Y-135240000D03*
D12*
X133920000Y-135240000D03*
%TD*%
D15*
%TO.C,C25*%
X133267800Y-85521800D03*
X138867800Y-85521800D03*
%TD*%
D16*
%TO.C,D4*%
X102250000Y-100310000D03*
X104350000Y-100310000D03*
%TD*%
D17*
%TO.C,J1*%
X97750000Y-81150000D03*
D18*
X102750000Y-81150000D03*
%TD*%
D19*
%TO.C,R37*%
X109817600Y-132842400D03*
X109817600Y-134492400D03*
%TD*%
D14*
%TO.C,C1*%
X102271200Y-98040200D03*
X102271200Y-96140200D03*
%TD*%
D20*
%TO.C,TP4*%
X93000000Y-99560000D03*
%TD*%
D21*
%TO.C,Y1*%
X135580000Y-113910000D03*
X135580000Y-122410000D03*
%TD*%
D22*
%TO.C,F2*%
X116230400Y-81584800D03*
X116230400Y-78784800D03*
%TD*%
D23*
%TO.C,C12*%
X138935000Y-127440000D03*
X137385000Y-127440000D03*
%TD*%
D24*
%TO.C,R7*%
X106871800Y-103082000D03*
X105221800Y-103082000D03*
%TD*%
D19*
%TO.C,R13*%
X139020000Y-122795000D03*
X139020000Y-124445000D03*
%TD*%
D25*
%TO.C,R20*%
X165500000Y-128035000D03*
X165500000Y-126385000D03*
%TD*%
D26*
%TO.C,U1*%
X108593700Y-94543800D03*
X108593700Y-95493800D03*
X108593700Y-96443800D03*
X110868700Y-96443800D03*
X110868700Y-95493800D03*
X110868700Y-94543800D03*
%TD*%
D25*
%TO.C,R2*%
X173130000Y-127845000D03*
X173130000Y-126195000D03*
%TD*%
D27*
%TO.C,SW2*%
X118053000Y-124672600D03*
X122153000Y-124672600D03*
X122153000Y-123072600D03*
X118053000Y-123072600D03*
%TD*%
D28*
%TO.C,D6*%
X163770000Y-127957500D03*
X163770000Y-126382500D03*
%TD*%
D25*
%TO.C,R6*%
X111767400Y-99830200D03*
X111767400Y-98180200D03*
%TD*%
D29*
%TO.C,C10*%
X154921400Y-126825058D03*
X156821400Y-126825058D03*
%TD*%
D30*
%TO.C,D2*%
X120167400Y-78842600D03*
X120167400Y-82142600D03*
%TD*%
D31*
%TO.C,H2*%
X184000000Y-82000000D03*
%TD*%
D32*
%TO.C,F1*%
X110058200Y-85861300D03*
X110058200Y-79086300D03*
%TD*%
D16*
%TO.C,D9*%
X101338800Y-129947800D03*
X99238800Y-129947800D03*
%TD*%
D33*
%TO.C,C3*%
X106647400Y-97661600D03*
X106647400Y-96111600D03*
%TD*%
D34*
%TO.C,C14*%
X155106400Y-130909229D03*
X156656400Y-130909229D03*
%TD*%
%TO.C,C11*%
X155096400Y-118254200D03*
X156646400Y-118254200D03*
%TD*%
D35*
%TO.C,U3*%
X149230000Y-118765900D03*
X148830000Y-118765900D03*
X148430000Y-118765900D03*
X148030000Y-118765900D03*
X147630000Y-118765900D03*
X147230000Y-118765900D03*
X146830000Y-118765900D03*
X146430000Y-118765900D03*
X146030000Y-118765900D03*
X145630000Y-118765900D03*
X145230000Y-118765900D03*
X144830000Y-118765900D03*
X144430000Y-118765900D03*
X144030000Y-118765900D03*
D36*
X142992500Y-119803400D03*
X142992500Y-120203400D03*
X142992500Y-120603400D03*
X142992500Y-121003400D03*
X142992500Y-121403400D03*
X142992500Y-121803400D03*
X142992500Y-122203400D03*
X142992500Y-122603400D03*
X142992500Y-123003400D03*
X142992500Y-123403400D03*
X142992500Y-123803400D03*
X142992500Y-124203400D03*
X142992500Y-124603400D03*
X142992500Y-125003400D03*
D37*
X144030000Y-126040900D03*
X144430000Y-126040900D03*
X144830000Y-126040900D03*
X145230000Y-126040900D03*
X145630000Y-126040900D03*
X146030000Y-126040900D03*
X146430000Y-126040900D03*
X146830000Y-126040900D03*
X147230000Y-126040900D03*
X147630000Y-126040900D03*
X148030000Y-126040900D03*
X148430000Y-126040900D03*
X148830000Y-126040900D03*
X149230000Y-126040900D03*
D38*
X150267500Y-125003400D03*
X150267500Y-124603400D03*
X150267500Y-124203400D03*
X150267500Y-123803400D03*
X150267500Y-123403400D03*
X150267500Y-123003400D03*
X150267500Y-122603400D03*
X150267500Y-122203400D03*
X150267500Y-121803400D03*
X150267500Y-121403400D03*
X150267500Y-121003400D03*
X150267500Y-120603400D03*
X150267500Y-120203400D03*
X150267500Y-119803400D03*
D39*
X146630000Y-122403400D03*
%TD*%
D31*
%TO.C,H1*%
X126000000Y-82000000D03*
%TD*%
D11*
%TO.C,J6*%
X156069840Y-135240000D03*
D12*
X153529840Y-135240000D03*
%TD*%
D11*
%TO.C,J14*%
X157227500Y-98680000D03*
D12*
X157227500Y-101220000D03*
X157227500Y-103760000D03*
X157227500Y-106300000D03*
%TD*%
D19*
%TO.C,R35*%
X109817600Y-125629066D03*
X109817600Y-127279066D03*
%TD*%
D34*
%TO.C,C13*%
X155096400Y-121582545D03*
X156646400Y-121582545D03*
%TD*%
D29*
%TO.C,C9*%
X154921400Y-128989229D03*
X156821400Y-128989229D03*
%TD*%
D16*
%TO.C,D7*%
X101338800Y-122632600D03*
X99238800Y-122632600D03*
%TD*%
D40*
%TO.C,R10*%
X120590000Y-126680000D03*
X122240000Y-126680000D03*
%TD*%
D41*
%TO.C,C7*%
X102020400Y-107288200D03*
X102020400Y-109188200D03*
%TD*%
D16*
%TO.C,D8*%
X101338800Y-126290200D03*
X99238800Y-126290200D03*
%TD*%
%TO.C,D10*%
X101338800Y-133605400D03*
X99238800Y-133605400D03*
%TD*%
D13*
%TO.C,Q6*%
X105772900Y-127214800D03*
X105772900Y-125314800D03*
X103897900Y-126264800D03*
%TD*%
D25*
%TO.C,R1*%
X168440000Y-131235000D03*
X168440000Y-129585000D03*
%TD*%
D33*
%TO.C,C19*%
X145110000Y-116045000D03*
X145110000Y-114495000D03*
%TD*%
D19*
%TO.C,R4*%
X115120000Y-93515000D03*
X115120000Y-95165000D03*
%TD*%
D24*
%TO.C,R5*%
X114207400Y-96700200D03*
X112557400Y-96700200D03*
%TD*%
D42*
%TO.C,SW1*%
X171482600Y-114613800D03*
X171482600Y-118713800D03*
X173082600Y-114613800D03*
X173082600Y-118713800D03*
%TD*%
D43*
%TO.C,C18*%
X145470000Y-129255000D03*
X145470000Y-130805000D03*
%TD*%
D41*
%TO.C,C5*%
X104237400Y-92620200D03*
X104237400Y-94520200D03*
%TD*%
D33*
%TO.C,C21*%
X139040000Y-115930000D03*
X139040000Y-114380000D03*
%TD*%
D43*
%TO.C,C16*%
X149221400Y-128605000D03*
X149221400Y-130155000D03*
%TD*%
D44*
%TO.C,J2*%
X171820000Y-131440000D03*
X177600000Y-131440000D03*
D45*
X171510000Y-130365000D03*
X172310000Y-130365000D03*
D46*
X173460000Y-130365000D03*
X174460000Y-130365000D03*
X174960000Y-130365000D03*
X175960000Y-130365000D03*
D47*
X177110000Y-130490000D03*
X177910000Y-130490000D03*
D45*
X177910000Y-130365000D03*
X177110000Y-130365000D03*
D46*
X176460000Y-130365000D03*
X175460000Y-130365000D03*
X173960000Y-130365000D03*
X172960000Y-130365000D03*
D47*
X172310000Y-130365000D03*
X171510000Y-130490000D03*
D48*
X170390000Y-130940000D03*
D49*
X170390000Y-135120000D03*
X179030000Y-135120000D03*
D48*
X179030000Y-130940000D03*
%TD*%
D24*
%TO.C,R15*%
X125125000Y-114630000D03*
X123475000Y-114630000D03*
%TD*%
D33*
%TO.C,C20*%
X151910000Y-116895000D03*
X151910000Y-115345000D03*
%TD*%
D11*
%TO.C,J5*%
X146264920Y-135240000D03*
D12*
X143724920Y-135240000D03*
%TD*%
D50*
%TO.C,L1*%
X110657400Y-92440200D03*
X108957400Y-92440200D03*
%TD*%
D25*
%TO.C,R38*%
X107917600Y-123642400D03*
X107917600Y-121992400D03*
%TD*%
D27*
%TO.C,SW3*%
X118770000Y-105880000D03*
X122870000Y-105880000D03*
X122870000Y-104280000D03*
X118770000Y-104280000D03*
%TD*%
D33*
%TO.C,C34*%
X124548000Y-124647600D03*
X124548000Y-123097600D03*
%TD*%
D20*
%TO.C,TP1*%
X126760000Y-89980000D03*
%TD*%
D25*
%TO.C,R39*%
X107917600Y-127249066D03*
X107917600Y-125599066D03*
%TD*%
D31*
%TO.C,H3*%
X126000000Y-131000000D03*
%TD*%
D11*
%TO.C,J8*%
X157227500Y-81721800D03*
D12*
X157227500Y-84261800D03*
X157227500Y-86801800D03*
X157227500Y-89341800D03*
%TD*%
D11*
%TO.C,J9*%
X165874760Y-135240000D03*
D12*
X163334760Y-135240000D03*
%TD*%
D11*
%TO.C,U8*%
X161134200Y-108830000D03*
D12*
X163674200Y-108830000D03*
X166214200Y-108830000D03*
X168754200Y-108830000D03*
X171294200Y-108830000D03*
X173834200Y-108830000D03*
X176374200Y-108830000D03*
X178914200Y-108830000D03*
X178914200Y-96130000D03*
X176374200Y-96130000D03*
X173834200Y-96130000D03*
X171294200Y-96130000D03*
X168754200Y-96130000D03*
X166214200Y-96130000D03*
X163674200Y-96130000D03*
X161134200Y-96130000D03*
%TD*%
D23*
%TO.C,C24*%
X162285000Y-120490000D03*
X160735000Y-120490000D03*
%TD*%
D11*
%TO.C,U6*%
X161134200Y-91871800D03*
D12*
X163674200Y-91871800D03*
X166214200Y-91871800D03*
X168754200Y-91871800D03*
X171294200Y-91871800D03*
X173834200Y-91871800D03*
X176374200Y-91871800D03*
X178914200Y-91871800D03*
X178914200Y-79171800D03*
X176374200Y-79171800D03*
X173834200Y-79171800D03*
X171294200Y-79171800D03*
X168754200Y-79171800D03*
X166214200Y-79171800D03*
X163674200Y-79171800D03*
X161134200Y-79171800D03*
%TD*%
D11*
%TO.C,J13*%
X152790000Y-106280000D03*
D12*
X152790000Y-103740000D03*
X152790000Y-101200000D03*
X152790000Y-98660000D03*
%TD*%
D34*
%TO.C,C15*%
X155096400Y-119918374D03*
X156646400Y-119918374D03*
%TD*%
D51*
%TO.C,U4*%
X168602600Y-118508800D03*
X168602600Y-117238800D03*
X168602600Y-115968800D03*
X168602600Y-114698800D03*
X161402600Y-114698800D03*
X161402600Y-115968800D03*
X161402600Y-117238800D03*
X161402600Y-118508800D03*
%TD*%
D20*
%TO.C,TP2*%
X93050000Y-94120000D03*
%TD*%
D11*
%TO.C,J7*%
X152790000Y-89321800D03*
D12*
X152790000Y-86781800D03*
X152790000Y-84241800D03*
X152790000Y-81701800D03*
%TD*%
D52*
%TO.C,D3*%
X115620800Y-88395000D03*
X115620800Y-85595000D03*
%TD*%
D11*
%TO.C,J3*%
X115850000Y-111850000D03*
D12*
X115850000Y-109310000D03*
X118390000Y-111850000D03*
X118390000Y-109310000D03*
X120930000Y-111850000D03*
X120930000Y-109310000D03*
X123470000Y-111850000D03*
X123470000Y-109310000D03*
%TD*%
D20*
%TO.C,TP3*%
X93050000Y-88450000D03*
%TD*%
D25*
%TO.C,R14*%
X116830000Y-95155000D03*
X116830000Y-93505000D03*
%TD*%
D11*
%TO.C,U7*%
X131317500Y-108830000D03*
D12*
X133857500Y-108830000D03*
X136397500Y-108830000D03*
X138937500Y-108830000D03*
X141477500Y-108830000D03*
X144017500Y-108830000D03*
X146557500Y-108830000D03*
X149097500Y-108830000D03*
X149097500Y-96130000D03*
X146557500Y-96130000D03*
X144017500Y-96130000D03*
X141477500Y-96130000D03*
X138937500Y-96130000D03*
X136397500Y-96130000D03*
X133857500Y-96130000D03*
X131317500Y-96130000D03*
%TD*%
D40*
%TO.C,R9*%
X155046400Y-124910887D03*
X156696400Y-124910887D03*
%TD*%
D43*
%TO.C,C4*%
X112747400Y-92565200D03*
X112747400Y-94115200D03*
%TD*%
D19*
%TO.C,R34*%
X109817600Y-121982400D03*
X109817600Y-123632400D03*
%TD*%
%TO.C,R18*%
X124460000Y-102640000D03*
X124460000Y-104290000D03*
%TD*%
D41*
%TO.C,C6*%
X106487400Y-92620200D03*
X106487400Y-94520200D03*
%TD*%
D25*
%TO.C,R16*%
X126130000Y-111875000D03*
X126130000Y-110225000D03*
%TD*%
D15*
%TO.C,C26*%
X163110000Y-85550000D03*
X168710000Y-85550000D03*
%TD*%
D25*
%TO.C,R3*%
X176440000Y-128465000D03*
X176440000Y-126815000D03*
%TD*%
D15*
%TO.C,C28*%
X162840000Y-102760000D03*
X168440000Y-102760000D03*
%TD*%
D19*
%TO.C,R36*%
X109817600Y-129255732D03*
X109817600Y-130905732D03*
%TD*%
D23*
%TO.C,C17*%
X138935000Y-125966800D03*
X137385000Y-125966800D03*
%TD*%
D40*
%TO.C,R8*%
X155046400Y-123246716D03*
X156696400Y-123246716D03*
%TD*%
D53*
%TO.C,U2*%
X99189200Y-108439000D03*
D54*
X92889200Y-106139000D03*
D53*
X99189200Y-106139000D03*
X99189200Y-103839000D03*
%TD*%
D40*
%TO.C,R17*%
X114365000Y-106570000D03*
X116015000Y-106570000D03*
%TD*%
D24*
%TO.C,R19*%
X107040000Y-107200000D03*
X105390000Y-107200000D03*
%TD*%
D55*
%TO.C,D5*%
X106834300Y-105088600D03*
X105259300Y-105088600D03*
%TD*%
D25*
%TO.C,R41*%
X107917600Y-134462400D03*
X107917600Y-132812400D03*
%TD*%
D15*
%TO.C,C27*%
X133060000Y-102780000D03*
X138660000Y-102780000D03*
%TD*%
D31*
%TO.C,H4*%
X184000000Y-131000000D03*
%TD*%
D40*
%TO.C,R12*%
X164063200Y-120515400D03*
X165713200Y-120515400D03*
%TD*%
D56*
%TO.C,J21*%
X92972600Y-121392000D03*
D57*
X94972600Y-122992000D03*
D58*
X94972600Y-125492000D03*
X94972600Y-127992000D03*
X94972600Y-130492000D03*
X94972600Y-132992000D03*
%TD*%
D13*
%TO.C,Q7*%
X105772900Y-130872400D03*
X105772900Y-128972400D03*
X103897900Y-129922400D03*
%TD*%
%TO.C,Q5*%
X105772900Y-123557200D03*
X105772900Y-121657200D03*
X103897900Y-122607200D03*
%TD*%
D25*
%TO.C,R11*%
X168342600Y-122190800D03*
X168342600Y-120540800D03*
%TD*%
%TO.C,R40*%
X107917600Y-130855732D03*
X107917600Y-129205732D03*
%TD*%
D33*
%TO.C,C22*%
X139020000Y-121325000D03*
X139020000Y-119775000D03*
%TD*%
D14*
%TO.C,C8*%
X102020400Y-104971800D03*
X102020400Y-103071800D03*
%TD*%
D59*
%TO.C,D1*%
X118365000Y-85640000D03*
X121665000Y-85640000D03*
%TD*%
M02*
