%TF.GenerationSoftware,KiCad,Pcbnew,(6.0.4-0)*%
%TF.CreationDate,2022-05-20T14:50:06+02:00*%
%TF.ProjectId,Huge-Stepper-Driver,48756765-2d53-4746-9570-7065722d4472,rev?*%
%TF.SameCoordinates,Original*%
%TF.FileFunction,Legend,Bot*%
%TF.FilePolarity,Positive*%
%FSLAX46Y46*%
G04 Gerber Fmt 4.6, Leading zero omitted, Abs format (unit mm)*
G04 Created by KiCad (PCBNEW (6.0.4-0)) date 2022-05-20 14:50:06*
%MOMM*%
%LPD*%
G01*
G04 APERTURE LIST*
%ADD10C,0.150000*%
G04 APERTURE END LIST*
D10*
X145501571Y-124189685D02*
X145501571Y-123796828D01*
X145537285Y-123725400D01*
X145608714Y-123689685D01*
X145751571Y-123689685D01*
X145823000Y-123725400D01*
X145501571Y-124153971D02*
X145573000Y-124189685D01*
X145751571Y-124189685D01*
X145823000Y-124153971D01*
X145858714Y-124082542D01*
X145858714Y-124011114D01*
X145823000Y-123939685D01*
X145751571Y-123903971D01*
X145573000Y-123903971D01*
X145501571Y-123868257D01*
X145251571Y-123689685D02*
X144965857Y-123689685D01*
X145144428Y-123439685D02*
X145144428Y-124082542D01*
X145108714Y-124153971D01*
X145037285Y-124189685D01*
X144965857Y-124189685D01*
X144144428Y-123439685D02*
X144144428Y-124046828D01*
X144108714Y-124118257D01*
X144073000Y-124153971D01*
X144001571Y-124189685D01*
X143858714Y-124189685D01*
X143787285Y-124153971D01*
X143751571Y-124118257D01*
X143715857Y-124046828D01*
X143715857Y-123439685D01*
X143358714Y-123689685D02*
X143358714Y-124189685D01*
X143358714Y-123761114D02*
X143323000Y-123725400D01*
X143251571Y-123689685D01*
X143144428Y-123689685D01*
X143073000Y-123725400D01*
X143037285Y-123796828D01*
X143037285Y-124189685D01*
X142680142Y-124189685D02*
X142680142Y-123689685D01*
X142680142Y-123439685D02*
X142715857Y-123475400D01*
X142680142Y-123511114D01*
X142644428Y-123475400D01*
X142680142Y-123439685D01*
X142680142Y-123511114D01*
X142394428Y-123689685D02*
X142215857Y-124189685D01*
X142037285Y-123689685D01*
X141465857Y-124153971D02*
X141537285Y-124189685D01*
X141680142Y-124189685D01*
X141751571Y-124153971D01*
X141787285Y-124082542D01*
X141787285Y-123796828D01*
X141751571Y-123725400D01*
X141680142Y-123689685D01*
X141537285Y-123689685D01*
X141465857Y-123725400D01*
X141430142Y-123796828D01*
X141430142Y-123868257D01*
X141787285Y-123939685D01*
X141108714Y-124189685D02*
X141108714Y-123689685D01*
X141108714Y-123832542D02*
X141073000Y-123761114D01*
X141037285Y-123725400D01*
X140965857Y-123689685D01*
X140894428Y-123689685D01*
X140680142Y-124153971D02*
X140608714Y-124189685D01*
X140465857Y-124189685D01*
X140394428Y-124153971D01*
X140358714Y-124082542D01*
X140358714Y-124046828D01*
X140394428Y-123975400D01*
X140465857Y-123939685D01*
X140573000Y-123939685D01*
X140644428Y-123903971D01*
X140680142Y-123832542D01*
X140680142Y-123796828D01*
X140644428Y-123725400D01*
X140573000Y-123689685D01*
X140465857Y-123689685D01*
X140394428Y-123725400D01*
X140037285Y-124189685D02*
X140037285Y-123689685D01*
X140037285Y-123439685D02*
X140073000Y-123475400D01*
X140037285Y-123511114D01*
X140001571Y-123475400D01*
X140037285Y-123439685D01*
X140037285Y-123511114D01*
X139787285Y-123689685D02*
X139501571Y-123689685D01*
X139680142Y-123439685D02*
X139680142Y-124082542D01*
X139644428Y-124153971D01*
X139573000Y-124189685D01*
X139501571Y-124189685D01*
X139323000Y-123689685D02*
X139144428Y-124189685D01*
X138965857Y-123689685D02*
X139144428Y-124189685D01*
X139215857Y-124368257D01*
X139251571Y-124403971D01*
X139323000Y-124439685D01*
X138001571Y-124189685D02*
X138073000Y-124153971D01*
X138108714Y-124118257D01*
X138144428Y-124046828D01*
X138144428Y-123832542D01*
X138108714Y-123761114D01*
X138073000Y-123725400D01*
X138001571Y-123689685D01*
X137894428Y-123689685D01*
X137823000Y-123725400D01*
X137787285Y-123761114D01*
X137751571Y-123832542D01*
X137751571Y-124046828D01*
X137787285Y-124118257D01*
X137823000Y-124153971D01*
X137894428Y-124189685D01*
X138001571Y-124189685D01*
X137537285Y-123689685D02*
X137251571Y-123689685D01*
X137430142Y-124189685D02*
X137430142Y-123546828D01*
X137394428Y-123475400D01*
X137323000Y-123439685D01*
X137251571Y-123439685D01*
X136537285Y-123439685D02*
X136108714Y-123439685D01*
X136323000Y-124189685D02*
X136323000Y-123439685D01*
X135858714Y-124189685D02*
X135858714Y-123689685D01*
X135858714Y-123832542D02*
X135823000Y-123761114D01*
X135787285Y-123725400D01*
X135715857Y-123689685D01*
X135644428Y-123689685D01*
X135108714Y-124153971D02*
X135180142Y-124189685D01*
X135323000Y-124189685D01*
X135394428Y-124153971D01*
X135430142Y-124082542D01*
X135430142Y-123796828D01*
X135394428Y-123725400D01*
X135323000Y-123689685D01*
X135180142Y-123689685D01*
X135108714Y-123725400D01*
X135073000Y-123796828D01*
X135073000Y-123868257D01*
X135430142Y-123939685D01*
X134751571Y-123689685D02*
X134751571Y-124189685D01*
X134751571Y-123761114D02*
X134715857Y-123725400D01*
X134644428Y-123689685D01*
X134537285Y-123689685D01*
X134465857Y-123725400D01*
X134430142Y-123796828D01*
X134430142Y-124189685D01*
X134180142Y-123689685D02*
X133894428Y-123689685D01*
X134073000Y-123439685D02*
X134073000Y-124082542D01*
X134037285Y-124153971D01*
X133965857Y-124189685D01*
X133894428Y-124189685D01*
X133537285Y-124189685D02*
X133608714Y-124153971D01*
X133644428Y-124118257D01*
X133680142Y-124046828D01*
X133680142Y-123832542D01*
X133644428Y-123761114D01*
X133608714Y-123725400D01*
X133537285Y-123689685D01*
X133430142Y-123689685D01*
X133358714Y-123725400D01*
X133323000Y-123761114D01*
X133287285Y-123832542D01*
X133287285Y-124046828D01*
X133323000Y-124118257D01*
X133358714Y-124153971D01*
X133430142Y-124189685D01*
X133537285Y-124189685D01*
X186955180Y-117173952D02*
X187669466Y-117173952D01*
X187812323Y-117126333D01*
X187907561Y-117031095D01*
X187955180Y-116888238D01*
X187955180Y-116793000D01*
X187955180Y-118126333D02*
X187955180Y-117650142D01*
X186955180Y-117650142D01*
X187859942Y-119031095D02*
X187907561Y-118983476D01*
X187955180Y-118840619D01*
X187955180Y-118745380D01*
X187907561Y-118602523D01*
X187812323Y-118507285D01*
X187717085Y-118459666D01*
X187526609Y-118412047D01*
X187383752Y-118412047D01*
X187193276Y-118459666D01*
X187098038Y-118507285D01*
X187002800Y-118602523D01*
X186955180Y-118745380D01*
X186955180Y-118840619D01*
X187002800Y-118983476D01*
X187050419Y-119031095D01*
X186955180Y-119745380D02*
X187669466Y-119745380D01*
X187812323Y-119697761D01*
X187907561Y-119602523D01*
X187955180Y-119459666D01*
X187955180Y-119364428D01*
X187955180Y-120697761D02*
X187955180Y-120221571D01*
X186955180Y-120221571D01*
X187859942Y-121602523D02*
X187907561Y-121554904D01*
X187955180Y-121412047D01*
X187955180Y-121316809D01*
X187907561Y-121173952D01*
X187812323Y-121078714D01*
X187717085Y-121031095D01*
X187526609Y-120983476D01*
X187383752Y-120983476D01*
X187193276Y-121031095D01*
X187098038Y-121078714D01*
X187002800Y-121173952D01*
X186955180Y-121316809D01*
X186955180Y-121412047D01*
X187002800Y-121554904D01*
X187050419Y-121602523D01*
X186955180Y-122316809D02*
X187669466Y-122316809D01*
X187812323Y-122269190D01*
X187907561Y-122173952D01*
X187955180Y-122031095D01*
X187955180Y-121935857D01*
X187955180Y-123269190D02*
X187955180Y-122793000D01*
X186955180Y-122793000D01*
X187859942Y-124173952D02*
X187907561Y-124126333D01*
X187955180Y-123983476D01*
X187955180Y-123888238D01*
X187907561Y-123745380D01*
X187812323Y-123650142D01*
X187717085Y-123602523D01*
X187526609Y-123554904D01*
X187383752Y-123554904D01*
X187193276Y-123602523D01*
X187098038Y-123650142D01*
X187002800Y-123745380D01*
X186955180Y-123888238D01*
X186955180Y-123983476D01*
X187002800Y-124126333D01*
X187050419Y-124173952D01*
X186955180Y-124888238D02*
X187669466Y-124888238D01*
X187812323Y-124840619D01*
X187907561Y-124745380D01*
X187955180Y-124602523D01*
X187955180Y-124507285D01*
X187955180Y-125840619D02*
X187955180Y-125364428D01*
X186955180Y-125364428D01*
X187859942Y-126745380D02*
X187907561Y-126697761D01*
X187955180Y-126554904D01*
X187955180Y-126459666D01*
X187907561Y-126316809D01*
X187812323Y-126221571D01*
X187717085Y-126173952D01*
X187526609Y-126126333D01*
X187383752Y-126126333D01*
X187193276Y-126173952D01*
X187098038Y-126221571D01*
X187002800Y-126316809D01*
X186955180Y-126459666D01*
X186955180Y-126554904D01*
X187002800Y-126697761D01*
X187050419Y-126745380D01*
X154601552Y-122383504D02*
X154601552Y-121583504D01*
X154411076Y-121583504D01*
X154296790Y-121621600D01*
X154220600Y-121697790D01*
X154182504Y-121773980D01*
X154144409Y-121926361D01*
X154144409Y-122040647D01*
X154182504Y-122193028D01*
X154220600Y-122269219D01*
X154296790Y-122345409D01*
X154411076Y-122383504D01*
X154601552Y-122383504D01*
X153496790Y-122345409D02*
X153572980Y-122383504D01*
X153725361Y-122383504D01*
X153801552Y-122345409D01*
X153839647Y-122269219D01*
X153839647Y-121964457D01*
X153801552Y-121888266D01*
X153725361Y-121850171D01*
X153572980Y-121850171D01*
X153496790Y-121888266D01*
X153458695Y-121964457D01*
X153458695Y-122040647D01*
X153839647Y-122116838D01*
X153153933Y-122345409D02*
X153077742Y-122383504D01*
X152925361Y-122383504D01*
X152849171Y-122345409D01*
X152811076Y-122269219D01*
X152811076Y-122231123D01*
X152849171Y-122154933D01*
X152925361Y-122116838D01*
X153039647Y-122116838D01*
X153115838Y-122078742D01*
X153153933Y-122002552D01*
X153153933Y-121964457D01*
X153115838Y-121888266D01*
X153039647Y-121850171D01*
X152925361Y-121850171D01*
X152849171Y-121888266D01*
X152468219Y-122383504D02*
X152468219Y-121850171D01*
X152468219Y-121583504D02*
X152506314Y-121621600D01*
X152468219Y-121659695D01*
X152430123Y-121621600D01*
X152468219Y-121583504D01*
X152468219Y-121659695D01*
X151744409Y-121850171D02*
X151744409Y-122497790D01*
X151782504Y-122573980D01*
X151820600Y-122612076D01*
X151896790Y-122650171D01*
X152011076Y-122650171D01*
X152087266Y-122612076D01*
X151744409Y-122345409D02*
X151820600Y-122383504D01*
X151972980Y-122383504D01*
X152049171Y-122345409D01*
X152087266Y-122307314D01*
X152125361Y-122231123D01*
X152125361Y-122002552D01*
X152087266Y-121926361D01*
X152049171Y-121888266D01*
X151972980Y-121850171D01*
X151820600Y-121850171D01*
X151744409Y-121888266D01*
X151363457Y-121850171D02*
X151363457Y-122383504D01*
X151363457Y-121926361D02*
X151325361Y-121888266D01*
X151249171Y-121850171D01*
X151134885Y-121850171D01*
X151058695Y-121888266D01*
X151020600Y-121964457D01*
X151020600Y-122383504D01*
X150334885Y-122345409D02*
X150411076Y-122383504D01*
X150563457Y-122383504D01*
X150639647Y-122345409D01*
X150677742Y-122269219D01*
X150677742Y-121964457D01*
X150639647Y-121888266D01*
X150563457Y-121850171D01*
X150411076Y-121850171D01*
X150334885Y-121888266D01*
X150296790Y-121964457D01*
X150296790Y-122040647D01*
X150677742Y-122116838D01*
X149611076Y-122383504D02*
X149611076Y-121583504D01*
X149611076Y-122345409D02*
X149687266Y-122383504D01*
X149839647Y-122383504D01*
X149915838Y-122345409D01*
X149953933Y-122307314D01*
X149992028Y-122231123D01*
X149992028Y-122002552D01*
X149953933Y-121926361D01*
X149915838Y-121888266D01*
X149839647Y-121850171D01*
X149687266Y-121850171D01*
X149611076Y-121888266D01*
X148620600Y-122383504D02*
X148620600Y-121583504D01*
X148620600Y-121888266D02*
X148544409Y-121850171D01*
X148392028Y-121850171D01*
X148315838Y-121888266D01*
X148277742Y-121926361D01*
X148239647Y-122002552D01*
X148239647Y-122231123D01*
X148277742Y-122307314D01*
X148315838Y-122345409D01*
X148392028Y-122383504D01*
X148544409Y-122383504D01*
X148620600Y-122345409D01*
X147972980Y-121850171D02*
X147782504Y-122383504D01*
X147592028Y-121850171D02*
X147782504Y-122383504D01*
X147858695Y-122573980D01*
X147896790Y-122612076D01*
X147972980Y-122650171D01*
X146296790Y-122383504D02*
X146677742Y-122383504D01*
X146677742Y-121583504D01*
X146030123Y-122383504D02*
X146030123Y-121850171D01*
X146030123Y-121583504D02*
X146068219Y-121621600D01*
X146030123Y-121659695D01*
X145992028Y-121621600D01*
X146030123Y-121583504D01*
X146030123Y-121659695D01*
X145687266Y-122345409D02*
X145611076Y-122383504D01*
X145458695Y-122383504D01*
X145382504Y-122345409D01*
X145344409Y-122269219D01*
X145344409Y-122231123D01*
X145382504Y-122154933D01*
X145458695Y-122116838D01*
X145572980Y-122116838D01*
X145649171Y-122078742D01*
X145687266Y-122002552D01*
X145687266Y-121964457D01*
X145649171Y-121888266D01*
X145572980Y-121850171D01*
X145458695Y-121850171D01*
X145382504Y-121888266D01*
X144658695Y-122383504D02*
X144658695Y-121964457D01*
X144696790Y-121888266D01*
X144772980Y-121850171D01*
X144925361Y-121850171D01*
X145001552Y-121888266D01*
X144658695Y-122345409D02*
X144734885Y-122383504D01*
X144925361Y-122383504D01*
X145001552Y-122345409D01*
X145039647Y-122269219D01*
X145039647Y-122193028D01*
X145001552Y-122116838D01*
X144925361Y-122078742D01*
X144734885Y-122078742D01*
X144658695Y-122040647D01*
X143706314Y-122345409D02*
X143592028Y-122383504D01*
X143401552Y-122383504D01*
X143325361Y-122345409D01*
X143287266Y-122307314D01*
X143249171Y-122231123D01*
X143249171Y-122154933D01*
X143287266Y-122078742D01*
X143325361Y-122040647D01*
X143401552Y-122002552D01*
X143553933Y-121964457D01*
X143630123Y-121926361D01*
X143668219Y-121888266D01*
X143706314Y-121812076D01*
X143706314Y-121735885D01*
X143668219Y-121659695D01*
X143630123Y-121621600D01*
X143553933Y-121583504D01*
X143363457Y-121583504D01*
X143249171Y-121621600D01*
X142563457Y-122383504D02*
X142563457Y-121964457D01*
X142601552Y-121888266D01*
X142677742Y-121850171D01*
X142830123Y-121850171D01*
X142906314Y-121888266D01*
X142563457Y-122345409D02*
X142639647Y-122383504D01*
X142830123Y-122383504D01*
X142906314Y-122345409D01*
X142944409Y-122269219D01*
X142944409Y-122193028D01*
X142906314Y-122116838D01*
X142830123Y-122078742D01*
X142639647Y-122078742D01*
X142563457Y-122040647D01*
X142182504Y-121850171D02*
X142182504Y-122383504D01*
X142182504Y-121926361D02*
X142144409Y-121888266D01*
X142068219Y-121850171D01*
X141953933Y-121850171D01*
X141877742Y-121888266D01*
X141839647Y-121964457D01*
X141839647Y-122383504D01*
X141572980Y-121850171D02*
X141268219Y-121850171D01*
X141458695Y-121583504D02*
X141458695Y-122269219D01*
X141420600Y-122345409D01*
X141344409Y-122383504D01*
X141268219Y-122383504D01*
X140658695Y-122383504D02*
X140658695Y-121964457D01*
X140696790Y-121888266D01*
X140772980Y-121850171D01*
X140925361Y-121850171D01*
X141001552Y-121888266D01*
X140658695Y-122345409D02*
X140734885Y-122383504D01*
X140925361Y-122383504D01*
X141001552Y-122345409D01*
X141039647Y-122269219D01*
X141039647Y-122193028D01*
X141001552Y-122116838D01*
X140925361Y-122078742D01*
X140734885Y-122078742D01*
X140658695Y-122040647D01*
X140277742Y-122383504D02*
X140277742Y-121850171D01*
X140277742Y-122002552D02*
X140239647Y-121926361D01*
X140201552Y-121888266D01*
X140125361Y-121850171D01*
X140049171Y-121850171D01*
X139668219Y-122383504D02*
X139744409Y-122345409D01*
X139782504Y-122307314D01*
X139820600Y-122231123D01*
X139820600Y-122002552D01*
X139782504Y-121926361D01*
X139744409Y-121888266D01*
X139668219Y-121850171D01*
X139553933Y-121850171D01*
X139477742Y-121888266D01*
X139439647Y-121926361D01*
X139401552Y-122002552D01*
X139401552Y-122231123D01*
X139439647Y-122307314D01*
X139477742Y-122345409D01*
X139553933Y-122383504D01*
X139668219Y-122383504D01*
X139096790Y-122345409D02*
X139020600Y-122383504D01*
X138868219Y-122383504D01*
X138792028Y-122345409D01*
X138753933Y-122269219D01*
X138753933Y-122231123D01*
X138792028Y-122154933D01*
X138868219Y-122116838D01*
X138982504Y-122116838D01*
X139058695Y-122078742D01*
X139096790Y-122002552D01*
X139096790Y-121964457D01*
X139058695Y-121888266D01*
X138982504Y-121850171D01*
X138868219Y-121850171D01*
X138792028Y-121888266D01*
X138449171Y-122345409D02*
X138372980Y-122383504D01*
X138220600Y-122383504D01*
X138144409Y-122345409D01*
X138106314Y-122269219D01*
X138106314Y-122231123D01*
X138144409Y-122154933D01*
X138220600Y-122116838D01*
X138334885Y-122116838D01*
X138411076Y-122078742D01*
X138449171Y-122002552D01*
X138449171Y-121964457D01*
X138411076Y-121888266D01*
X138334885Y-121850171D01*
X138220600Y-121850171D01*
X138144409Y-121888266D01*
X137420600Y-122383504D02*
X137420600Y-121964457D01*
X137458695Y-121888266D01*
X137534885Y-121850171D01*
X137687266Y-121850171D01*
X137763457Y-121888266D01*
X137420600Y-122345409D02*
X137496790Y-122383504D01*
X137687266Y-122383504D01*
X137763457Y-122345409D01*
X137801552Y-122269219D01*
X137801552Y-122193028D01*
X137763457Y-122116838D01*
X137687266Y-122078742D01*
X137496790Y-122078742D01*
X137420600Y-122040647D01*
X136087266Y-122383504D02*
X136087266Y-121964457D01*
X136125361Y-121888266D01*
X136201552Y-121850171D01*
X136353933Y-121850171D01*
X136430123Y-121888266D01*
X136087266Y-122345409D02*
X136163457Y-122383504D01*
X136353933Y-122383504D01*
X136430123Y-122345409D01*
X136468219Y-122269219D01*
X136468219Y-122193028D01*
X136430123Y-122116838D01*
X136353933Y-122078742D01*
X136163457Y-122078742D01*
X136087266Y-122040647D01*
X135706314Y-121850171D02*
X135706314Y-122383504D01*
X135706314Y-121926361D02*
X135668219Y-121888266D01*
X135592028Y-121850171D01*
X135477742Y-121850171D01*
X135401552Y-121888266D01*
X135363457Y-121964457D01*
X135363457Y-122383504D01*
X134639647Y-122383504D02*
X134639647Y-121583504D01*
X134639647Y-122345409D02*
X134715838Y-122383504D01*
X134868219Y-122383504D01*
X134944409Y-122345409D01*
X134982504Y-122307314D01*
X135020600Y-122231123D01*
X135020600Y-122002552D01*
X134982504Y-121926361D01*
X134944409Y-121888266D01*
X134868219Y-121850171D01*
X134715838Y-121850171D01*
X134639647Y-121888266D01*
X133649171Y-122383504D02*
X133649171Y-121583504D01*
X133458695Y-121583504D01*
X133344409Y-121621600D01*
X133268219Y-121697790D01*
X133230123Y-121773980D01*
X133192028Y-121926361D01*
X133192028Y-122040647D01*
X133230123Y-122193028D01*
X133268219Y-122269219D01*
X133344409Y-122345409D01*
X133458695Y-122383504D01*
X133649171Y-122383504D01*
X132506314Y-122383504D02*
X132506314Y-121964457D01*
X132544409Y-121888266D01*
X132620600Y-121850171D01*
X132772980Y-121850171D01*
X132849171Y-121888266D01*
X132506314Y-122345409D02*
X132582504Y-122383504D01*
X132772980Y-122383504D01*
X132849171Y-122345409D01*
X132887266Y-122269219D01*
X132887266Y-122193028D01*
X132849171Y-122116838D01*
X132772980Y-122078742D01*
X132582504Y-122078742D01*
X132506314Y-122040647D01*
X132125361Y-122383504D02*
X132125361Y-121850171D01*
X132125361Y-121926361D02*
X132087266Y-121888266D01*
X132011076Y-121850171D01*
X131896790Y-121850171D01*
X131820600Y-121888266D01*
X131782504Y-121964457D01*
X131782504Y-122383504D01*
X131782504Y-121964457D02*
X131744409Y-121888266D01*
X131668219Y-121850171D01*
X131553933Y-121850171D01*
X131477742Y-121888266D01*
X131439647Y-121964457D01*
X131439647Y-122383504D01*
X131058695Y-122383504D02*
X131058695Y-121850171D01*
X131058695Y-121583504D02*
X131096790Y-121621600D01*
X131058695Y-121659695D01*
X131020600Y-121621600D01*
X131058695Y-121583504D01*
X131058695Y-121659695D01*
X130334885Y-122383504D02*
X130334885Y-121964457D01*
X130372980Y-121888266D01*
X130449171Y-121850171D01*
X130601552Y-121850171D01*
X130677742Y-121888266D01*
X130334885Y-122345409D02*
X130411076Y-122383504D01*
X130601552Y-122383504D01*
X130677742Y-122345409D01*
X130715838Y-122269219D01*
X130715838Y-122193028D01*
X130677742Y-122116838D01*
X130601552Y-122078742D01*
X130411076Y-122078742D01*
X130334885Y-122040647D01*
X129953933Y-121850171D02*
X129953933Y-122383504D01*
X129953933Y-121926361D02*
X129915838Y-121888266D01*
X129839647Y-121850171D01*
X129725361Y-121850171D01*
X129649171Y-121888266D01*
X129611076Y-121964457D01*
X129611076Y-122383504D01*
X129115838Y-122383504D02*
X129192028Y-122345409D01*
X129230123Y-122307314D01*
X129268219Y-122231123D01*
X129268219Y-122002552D01*
X129230123Y-121926361D01*
X129192028Y-121888266D01*
X129115838Y-121850171D01*
X129001552Y-121850171D01*
X128925361Y-121888266D01*
X128887266Y-121926361D01*
X128849171Y-122002552D01*
X128849171Y-122231123D01*
X128887266Y-122307314D01*
X128925361Y-122345409D01*
X129001552Y-122383504D01*
X129115838Y-122383504D01*
X127896790Y-122383504D02*
X127896790Y-121583504D01*
X127592028Y-121583504D01*
X127515838Y-121621600D01*
X127477742Y-121659695D01*
X127439647Y-121735885D01*
X127439647Y-121850171D01*
X127477742Y-121926361D01*
X127515838Y-121964457D01*
X127592028Y-122002552D01*
X127896790Y-122002552D01*
X126792028Y-122345409D02*
X126868219Y-122383504D01*
X127020600Y-122383504D01*
X127096790Y-122345409D01*
X127134885Y-122269219D01*
X127134885Y-121964457D01*
X127096790Y-121888266D01*
X127020600Y-121850171D01*
X126868219Y-121850171D01*
X126792028Y-121888266D01*
X126753933Y-121964457D01*
X126753933Y-122040647D01*
X127134885Y-122116838D01*
X126068219Y-122383504D02*
X126068219Y-121583504D01*
X126068219Y-122345409D02*
X126144409Y-122383504D01*
X126296790Y-122383504D01*
X126372980Y-122345409D01*
X126411076Y-122307314D01*
X126449171Y-122231123D01*
X126449171Y-122002552D01*
X126411076Y-121926361D01*
X126372980Y-121888266D01*
X126296790Y-121850171D01*
X126144409Y-121850171D01*
X126068219Y-121888266D01*
X125572980Y-122383504D02*
X125649171Y-122345409D01*
X125687266Y-122307314D01*
X125725361Y-122231123D01*
X125725361Y-122002552D01*
X125687266Y-121926361D01*
X125649171Y-121888266D01*
X125572980Y-121850171D01*
X125458695Y-121850171D01*
X125382504Y-121888266D01*
X125344409Y-121926361D01*
X125306314Y-122002552D01*
X125306314Y-122231123D01*
X125344409Y-122307314D01*
X125382504Y-122345409D01*
X125458695Y-122383504D01*
X125572980Y-122383504D01*
X124963457Y-121850171D02*
X124963457Y-122383504D01*
X124963457Y-121926361D02*
X124925361Y-121888266D01*
X124849171Y-121850171D01*
X124734885Y-121850171D01*
X124658695Y-121888266D01*
X124620600Y-121964457D01*
X124620600Y-122383504D01*
X124239647Y-122383504D02*
X124239647Y-121850171D01*
X124239647Y-121583504D02*
X124277742Y-121621600D01*
X124239647Y-121659695D01*
X124201552Y-121621600D01*
X124239647Y-121583504D01*
X124239647Y-121659695D01*
X97340476Y-99121904D02*
X96845238Y-99121904D01*
X97111904Y-99426666D01*
X96997619Y-99426666D01*
X96921428Y-99464761D01*
X96883333Y-99502857D01*
X96845238Y-99579047D01*
X96845238Y-99769523D01*
X96883333Y-99845714D01*
X96921428Y-99883809D01*
X96997619Y-99921904D01*
X97226190Y-99921904D01*
X97302380Y-99883809D01*
X97340476Y-99845714D01*
X96616666Y-99121904D02*
X96350000Y-99921904D01*
X96083333Y-99121904D01*
X95892857Y-99121904D02*
X95397619Y-99121904D01*
X95664285Y-99426666D01*
X95550000Y-99426666D01*
X95473809Y-99464761D01*
X95435714Y-99502857D01*
X95397619Y-99579047D01*
X95397619Y-99769523D01*
X95435714Y-99845714D01*
X95473809Y-99883809D01*
X95550000Y-99921904D01*
X95778571Y-99921904D01*
X95854761Y-99883809D01*
X95892857Y-99845714D01*
X97146190Y-87921904D02*
X96879523Y-88721904D01*
X96612857Y-87921904D01*
X96346190Y-88721904D02*
X96346190Y-87921904D01*
X95965238Y-88721904D02*
X95965238Y-87921904D01*
X95508095Y-88721904D01*
X95508095Y-87921904D01*
X94100000Y-114519523D02*
X94138095Y-114595714D01*
X94138095Y-114710000D01*
X94100000Y-114824285D01*
X94023809Y-114900476D01*
X93947619Y-114938571D01*
X93795238Y-114976666D01*
X93680952Y-114976666D01*
X93528571Y-114938571D01*
X93452380Y-114900476D01*
X93376190Y-114824285D01*
X93338095Y-114710000D01*
X93338095Y-114633809D01*
X93376190Y-114519523D01*
X93414285Y-114481428D01*
X93680952Y-114481428D01*
X93680952Y-114633809D01*
X93338095Y-114138571D02*
X94138095Y-114138571D01*
X93338095Y-113681428D01*
X94138095Y-113681428D01*
X93338095Y-113300476D02*
X94138095Y-113300476D01*
X94138095Y-113110000D01*
X94100000Y-112995714D01*
X94023809Y-112919523D01*
X93947619Y-112881428D01*
X93795238Y-112843333D01*
X93680952Y-112843333D01*
X93528571Y-112881428D01*
X93452380Y-112919523D01*
X93376190Y-112995714D01*
X93338095Y-113110000D01*
X93338095Y-113300476D01*
X136635238Y-133111904D02*
X137016190Y-133111904D01*
X137016190Y-132311904D01*
X136406666Y-132883333D02*
X136025714Y-132883333D01*
X136482857Y-133111904D02*
X136216190Y-132311904D01*
X135949523Y-133111904D01*
X92542380Y-122541904D02*
X92923333Y-122541904D01*
X92961428Y-122922857D01*
X92923333Y-122884761D01*
X92847142Y-122846666D01*
X92656666Y-122846666D01*
X92580476Y-122884761D01*
X92542380Y-122922857D01*
X92504285Y-122999047D01*
X92504285Y-123189523D01*
X92542380Y-123265714D01*
X92580476Y-123303809D01*
X92656666Y-123341904D01*
X92847142Y-123341904D01*
X92923333Y-123303809D01*
X92961428Y-123265714D01*
X92275714Y-122541904D02*
X92009047Y-123341904D01*
X91742380Y-122541904D01*
X153894761Y-132807142D02*
X153285238Y-132807142D01*
X156252380Y-133111904D02*
X156633333Y-133111904D01*
X156633333Y-132311904D01*
X155528571Y-133035714D02*
X155566666Y-133073809D01*
X155680952Y-133111904D01*
X155757142Y-133111904D01*
X155871428Y-133073809D01*
X155947619Y-132997619D01*
X155985714Y-132921428D01*
X156023809Y-132769047D01*
X156023809Y-132654761D01*
X155985714Y-132502380D01*
X155947619Y-132426190D01*
X155871428Y-132350000D01*
X155757142Y-132311904D01*
X155680952Y-132311904D01*
X155566666Y-132350000D01*
X155528571Y-132388095D01*
X103375238Y-78421904D02*
X103832380Y-78421904D01*
X103603809Y-78421904D02*
X103603809Y-77621904D01*
X103680000Y-77736190D01*
X103756190Y-77812380D01*
X103832380Y-77850476D01*
X103070476Y-77698095D02*
X103032380Y-77660000D01*
X102956190Y-77621904D01*
X102765714Y-77621904D01*
X102689523Y-77660000D01*
X102651428Y-77698095D01*
X102613333Y-77774285D01*
X102613333Y-77850476D01*
X102651428Y-77964761D01*
X103108571Y-78421904D01*
X102613333Y-78421904D01*
X102384761Y-77621904D02*
X102118095Y-78421904D01*
X101851428Y-77621904D01*
X134204761Y-132807142D02*
X133595238Y-132807142D01*
X184930000Y-112450476D02*
X184891904Y-112374285D01*
X184891904Y-112260000D01*
X184930000Y-112145714D01*
X185006190Y-112069523D01*
X185082380Y-112031428D01*
X185234761Y-111993333D01*
X185349047Y-111993333D01*
X185501428Y-112031428D01*
X185577619Y-112069523D01*
X185653809Y-112145714D01*
X185691904Y-112260000D01*
X185691904Y-112336190D01*
X185653809Y-112450476D01*
X185615714Y-112488571D01*
X185349047Y-112488571D01*
X185349047Y-112336190D01*
X185691904Y-112831428D02*
X184891904Y-112831428D01*
X185691904Y-113288571D01*
X184891904Y-113288571D01*
X185691904Y-113669523D02*
X184891904Y-113669523D01*
X184891904Y-113860000D01*
X184930000Y-113974285D01*
X185006190Y-114050476D01*
X185082380Y-114088571D01*
X185234761Y-114126666D01*
X185349047Y-114126666D01*
X185501428Y-114088571D01*
X185577619Y-114050476D01*
X185653809Y-113974285D01*
X185691904Y-113860000D01*
X185691904Y-113669523D01*
X144084761Y-132807142D02*
X143475238Y-132807142D01*
X163644761Y-132807142D02*
X163035238Y-132807142D01*
X146432380Y-133111904D02*
X146813333Y-133111904D01*
X146813333Y-132311904D01*
X145899047Y-132692857D02*
X145784761Y-132730952D01*
X145746666Y-132769047D01*
X145708571Y-132845238D01*
X145708571Y-132959523D01*
X145746666Y-133035714D01*
X145784761Y-133073809D01*
X145860952Y-133111904D01*
X146165714Y-133111904D01*
X146165714Y-132311904D01*
X145899047Y-132311904D01*
X145822857Y-132350000D01*
X145784761Y-132388095D01*
X145746666Y-132464285D01*
X145746666Y-132540476D01*
X145784761Y-132616666D01*
X145822857Y-132654761D01*
X145899047Y-132692857D01*
X146165714Y-132692857D01*
X166042380Y-133111904D02*
X166423333Y-133111904D01*
X166423333Y-132311904D01*
X165775714Y-133111904D02*
X165775714Y-132311904D01*
X165585238Y-132311904D01*
X165470952Y-132350000D01*
X165394761Y-132426190D01*
X165356666Y-132502380D01*
X165318571Y-132654761D01*
X165318571Y-132769047D01*
X165356666Y-132921428D01*
X165394761Y-132997619D01*
X165470952Y-133073809D01*
X165585238Y-133111904D01*
X165775714Y-133111904D01*
X123735238Y-90411904D02*
X124192380Y-90411904D01*
X123963809Y-90411904D02*
X123963809Y-89611904D01*
X124040000Y-89726190D01*
X124116190Y-89802380D01*
X124192380Y-89840476D01*
X123430476Y-89688095D02*
X123392380Y-89650000D01*
X123316190Y-89611904D01*
X123125714Y-89611904D01*
X123049523Y-89650000D01*
X123011428Y-89688095D01*
X122973333Y-89764285D01*
X122973333Y-89840476D01*
X123011428Y-89954761D01*
X123468571Y-90411904D01*
X122973333Y-90411904D01*
X122744761Y-89611904D02*
X122478095Y-90411904D01*
X122211428Y-89611904D01*
X98279523Y-77660000D02*
X98355714Y-77621904D01*
X98470000Y-77621904D01*
X98584285Y-77660000D01*
X98660476Y-77736190D01*
X98698571Y-77812380D01*
X98736666Y-77964761D01*
X98736666Y-78079047D01*
X98698571Y-78231428D01*
X98660476Y-78307619D01*
X98584285Y-78383809D01*
X98470000Y-78421904D01*
X98393809Y-78421904D01*
X98279523Y-78383809D01*
X98241428Y-78345714D01*
X98241428Y-78079047D01*
X98393809Y-78079047D01*
X97898571Y-78421904D02*
X97898571Y-77621904D01*
X97441428Y-78421904D01*
X97441428Y-77621904D01*
X97060476Y-78421904D02*
X97060476Y-77621904D01*
X96870000Y-77621904D01*
X96755714Y-77660000D01*
X96679523Y-77736190D01*
X96641428Y-77812380D01*
X96603333Y-77964761D01*
X96603333Y-78079047D01*
X96641428Y-78231428D01*
X96679523Y-78307619D01*
X96755714Y-78383809D01*
X96870000Y-78421904D01*
X97060476Y-78421904D01*
X96282380Y-93661904D02*
X96663333Y-93661904D01*
X96701428Y-94042857D01*
X96663333Y-94004761D01*
X96587142Y-93966666D01*
X96396666Y-93966666D01*
X96320476Y-94004761D01*
X96282380Y-94042857D01*
X96244285Y-94119047D01*
X96244285Y-94309523D01*
X96282380Y-94385714D01*
X96320476Y-94423809D01*
X96396666Y-94461904D01*
X96587142Y-94461904D01*
X96663333Y-94423809D01*
X96701428Y-94385714D01*
X96015714Y-93661904D02*
X95749047Y-94461904D01*
X95482380Y-93661904D01*
M02*
