M48
; DRILL file {KiCad (6.0.2-0)} date 2022 May 18, Wednesday 10:29:18
; FORMAT={-:-/ absolute / inch / decimal}
; #@! TF.CreationDate,2022-05-18T10:29:18+02:00
; #@! TF.GenerationSoftware,Kicad,Pcbnew,(6.0.2-0)
; #@! TF.FileFunction,MixedPlating,1,2
FMAT,2
INCH
; #@! TA.AperFunction,Plated,PTH,ViaDrill
T1C0.0098
; #@! TA.AperFunction,Plated,PTH,ViaDrill
T2C0.0157
; #@! TA.AperFunction,Plated,PTH,ComponentDrill
T3C0.0236
; #@! TA.AperFunction,Plated,PTH,ComponentDrill
T4C0.0374
; #@! TA.AperFunction,Plated,PTH,ComponentDrill
T5C0.0394
; #@! TA.AperFunction,Plated,PTH,ComponentDrill
T6C0.0512
; #@! TA.AperFunction,Plated,PTH,ComponentDrill
T7C0.0630
; #@! TA.AperFunction,NonPlated,NPTH,ComponentDrill
T8C0.0256
; #@! TA.AperFunction,NonPlated,NPTH,ComponentDrill
T9C0.0472
; #@! TA.AperFunction,NonPlated,NPTH,ComponentDrill
T10C0.1260
%
G90
G05
T1
X3.6209Y-5.1614
X3.6618Y-3.1831
X3.7Y-4.4591
X3.7917Y-4.5902
X3.8425Y-3.7878
X3.8445Y-3.998
X3.8551Y-3.5654
X3.8677Y-4.9028
X3.9283Y-4.0209
X3.9319Y-3.8248
X3.9854Y-3.7047
X4.0299Y-4.448
X4.0567Y-4.6339
X4.0685Y-4.2209
X4.0823Y-3.0465
X4.0945Y-4.0311
X4.1193Y-3.2772
X4.1209Y-4.1894
X4.1307Y-4.3583
X4.1575Y-5.3488
X4.1724Y-4.9705
X4.2114Y-5.048
X4.213Y-5.1984
X4.2256Y-3.9547
X4.2425Y-4.7276
X4.2945Y-4.0949
X4.3185Y-3.235
X4.3469Y-3.9374
X4.3476Y-4.6728
X4.3531Y-4.4358
X4.3575Y-4.1886
X4.3827Y-5.0504
X4.3831Y-4.0382
X4.387Y-4.9118
X4.4579Y-5.1858
X4.461Y-4.3303
X4.4976Y-3.274
X4.5287Y-5.252
X4.5965Y-5.0996
X4.6311Y-4.7142
X4.6417Y-3.0402
X4.6846Y-3.5142
X4.6961Y-3.9083
X4.7421Y-5.1425
X4.7437Y-4.2189
X4.7492Y-4.513
X4.7512Y-4.1114
X4.7665Y-3.2831
X4.7874Y-3.5496
X4.7988Y-3.6791
X4.8173Y-4.6437
X4.8201Y-3.1161
X4.8583Y-3.872
X4.898Y-3.4098
X5.0Y-4.1823
X5.0626Y-4.7398
X5.0681Y-3.7335
X5.0795Y-3.0453
X5.1197Y-3.3185
X5.1429Y-4.5732
X5.1551Y-3.487
X5.1972Y-5.0228
X5.2087Y-4.9075
X5.2969Y-3.4815
X5.3972Y-3.2736
X5.4291Y-4.4543
X5.4606Y-4.3846
X5.5252Y-5.2795
X5.5331Y-3.2327
X5.5346Y-4.7988
X5.5429Y-4.7205
X5.5449Y-4.4583
X5.5465Y-3.9079
X5.5728Y-4.8921
X5.6173Y-4.1453
X5.6209Y-4.3925
X5.6268Y-3.4949
X5.6272Y-4.6228
X5.6311Y-3.2343
X5.678Y-5.0878
X5.6965Y-4.9028
X5.7Y-3.1929
X5.7039Y-4.7409
X5.7054Y-3.0462
X5.7161Y-5.2583
X5.7283Y-4.098
X5.7319Y-4.4126
X5.7366Y-3.9949
X5.7445Y-3.9098
X5.7561Y-5.0157
X5.8232Y-4.3929
X5.8256Y-3.3634
X5.8343Y-3.4701
X5.852Y-4.9043
X5.8524Y-4.7469
X5.8524Y-5.0134
X5.8657Y-4.0472
X5.8799Y-4.1283
X5.8823Y-3.2654
X5.9024Y-3.9319
X5.9142Y-5.3075
X5.9406Y-4.4028
X5.9496Y-5.061
X5.9538Y-4.6988
X5.9721Y-4.6675
X6.0225Y-4.6109
X6.0343Y-3.7626
X6.0929Y-4.5154
X6.0965Y-3.1209
X6.0965Y-3.6201
X6.1071Y-4.2606
X6.1232Y-4.4146
X6.1345Y-4.2878
X6.2028Y-3.028
X6.2445Y-3.6724
X6.3272Y-3.3661
X6.3413Y-4.1465
X6.3524Y-4.8319
X6.365Y-5.0976
X6.3701Y-5.0134
X6.3728Y-3.4717
X6.4461Y-4.6067
X6.484Y-4.7853
X6.4898Y-3.8894
X6.4925Y-4.4614
X6.5567Y-3.9185
X6.5615Y-4.614
X6.5643Y-4.5656
X6.585Y-4.1378
X6.6177Y-4.9598
X6.6189Y-3.4768
X6.6236Y-5.2378
X6.6382Y-3.9374
X6.7083Y-4.9988
X6.7835Y-5.0858
X6.7917Y-3.9516
X6.8Y-3.3012
X6.8449Y-5.0748
X6.8862Y-5.2642
X6.8921Y-5.0752
X6.9496Y-4.7913
X6.9571Y-4.013
X6.9862Y-4.4504
X6.9898Y-3.4583
X7.0087Y-5.0409
X7.0563Y-3.2874
X7.0772Y-5.0524
X7.113Y-4.5807
X7.2094Y-4.1378
X7.2429Y-4.8512
X7.2673Y-3.824
X7.3205Y-3.5382
X7.3272Y-4.424
T2
X3.9514Y-5.1891
X3.9524Y-5.0421
X3.9554Y-4.8941
X4.0214Y-4.8931
X4.0254Y-5.0421
X4.0274Y-5.1891
X5.026Y-4.0417
X5.0945Y-3.8425
X5.178Y-3.7087
X5.6374Y-4.539
X5.7114Y-4.5709
X6.1059Y-4.7205
X6.2185Y-4.7413
X6.4449Y-4.5193
T4
X3.7391Y-4.8422
X3.7391Y-4.9406
X3.7391Y-5.0391
X3.7391Y-5.1375
X3.7391Y-5.2359
T5
X4.561Y-4.3035
X4.561Y-4.4035
X4.661Y-4.3035
X4.661Y-4.4035
X4.761Y-4.3035
X4.761Y-4.4035
X4.861Y-4.3035
X4.861Y-4.4035
X5.17Y-3.117
X5.17Y-3.617
X5.17Y-3.7846
X5.17Y-4.2846
X5.27Y-3.117
X5.27Y-3.617
X5.27Y-3.7846
X5.27Y-4.2846
X5.2724Y-5.3244
X5.37Y-3.117
X5.37Y-3.617
X5.37Y-3.7846
X5.37Y-4.2846
X5.3724Y-5.3244
X5.47Y-3.117
X5.47Y-3.617
X5.47Y-3.7846
X5.47Y-4.2846
X5.57Y-3.117
X5.57Y-3.617
X5.57Y-3.7846
X5.57Y-4.2846
X5.6585Y-5.3244
X5.67Y-3.117
X5.67Y-3.617
X5.67Y-3.7846
X5.67Y-4.2846
X5.7585Y-5.3244
X5.77Y-3.117
X5.77Y-3.617
X5.77Y-3.7846
X5.77Y-4.2846
X5.87Y-3.117
X5.87Y-3.617
X5.87Y-3.7846
X5.87Y-4.2846
X6.0154Y-3.2166
X6.0154Y-3.3166
X6.0154Y-3.4166
X6.0154Y-3.5166
X6.0154Y-3.8843
X6.0154Y-3.9843
X6.0154Y-4.0843
X6.0154Y-4.1843
X6.0445Y-5.3244
X6.1445Y-5.3244
X6.1901Y-3.2174
X6.1901Y-3.3174
X6.1901Y-3.4174
X6.1901Y-3.5174
X6.1901Y-3.885
X6.1901Y-3.985
X6.1901Y-4.085
X6.1901Y-4.185
X6.3439Y-3.117
X6.3439Y-3.617
X6.3439Y-3.7846
X6.3439Y-4.2846
X6.4305Y-5.3244
X6.4439Y-3.117
X6.4439Y-3.617
X6.4439Y-3.7846
X6.4439Y-4.2846
X6.5305Y-5.3244
X6.5439Y-3.117
X6.5439Y-3.617
X6.5439Y-3.7846
X6.5439Y-4.2846
X6.6439Y-3.117
X6.6439Y-3.617
X6.6439Y-3.7846
X6.6439Y-4.2846
X6.7439Y-3.117
X6.7439Y-3.617
X6.7439Y-3.7846
X6.7439Y-4.2846
X6.8439Y-3.117
X6.8439Y-3.617
X6.8439Y-3.7846
X6.8439Y-4.2846
X6.9439Y-3.117
X6.9439Y-3.617
X6.9439Y-3.7846
X6.9439Y-4.2846
X7.0439Y-3.117
X7.0439Y-3.617
X7.0439Y-3.7846
X7.0439Y-4.2846
T6
X3.8484Y-3.1949
X4.0453Y-3.1949
T7
X3.6614Y-3.9197
X3.6634Y-3.4823
X3.6634Y-3.7055
X4.9906Y-3.5425
T8
X6.7646Y-5.1748
X6.9921Y-5.1748
T9
X3.6603Y-4.7792
T10
X4.9606Y-3.2283
X4.9606Y-5.1575
X7.2441Y-3.2283
X7.2441Y-5.1575
T3
G00X6.7083Y-5.1335
M15
G01X6.7083Y-5.1768
M16
G05
G00X6.7083Y-5.3039
M15
G01X6.7083Y-5.3354
M16
G05
G00X7.0484Y-5.1335
M15
G01X7.0484Y-5.1768
M16
G05
G00X7.0484Y-5.3039
M15
G01X7.0484Y-5.3354
M16
G05
T0
M30
