%TF.GenerationSoftware,KiCad,Pcbnew,(6.0.2-0)*%
%TF.CreationDate,2022-05-18T10:29:49+02:00*%
%TF.ProjectId,Huge-Stepper-Driver,48756765-2d53-4746-9570-7065722d4472,rev?*%
%TF.SameCoordinates,Original*%
%TF.FileFunction,Legend,Bot*%
%TF.FilePolarity,Positive*%
%FSLAX46Y46*%
G04 Gerber Fmt 4.6, Leading zero omitted, Abs format (unit mm)*
G04 Created by KiCad (PCBNEW (6.0.2-0)) date 2022-05-18 10:29:49*
%MOMM*%
%LPD*%
G01*
G04 APERTURE LIST*
%ADD10C,0.150000*%
G04 APERTURE END LIST*
D10*
X97340476Y-99121904D02*
X96845238Y-99121904D01*
X97111904Y-99426666D01*
X96997619Y-99426666D01*
X96921428Y-99464761D01*
X96883333Y-99502857D01*
X96845238Y-99579047D01*
X96845238Y-99769523D01*
X96883333Y-99845714D01*
X96921428Y-99883809D01*
X96997619Y-99921904D01*
X97226190Y-99921904D01*
X97302380Y-99883809D01*
X97340476Y-99845714D01*
X96616666Y-99121904D02*
X96350000Y-99921904D01*
X96083333Y-99121904D01*
X95892857Y-99121904D02*
X95397619Y-99121904D01*
X95664285Y-99426666D01*
X95550000Y-99426666D01*
X95473809Y-99464761D01*
X95435714Y-99502857D01*
X95397619Y-99579047D01*
X95397619Y-99769523D01*
X95435714Y-99845714D01*
X95473809Y-99883809D01*
X95550000Y-99921904D01*
X95778571Y-99921904D01*
X95854761Y-99883809D01*
X95892857Y-99845714D01*
X97146190Y-87921904D02*
X96879523Y-88721904D01*
X96612857Y-87921904D01*
X96346190Y-88721904D02*
X96346190Y-87921904D01*
X95965238Y-88721904D02*
X95965238Y-87921904D01*
X95508095Y-88721904D01*
X95508095Y-87921904D01*
X136635238Y-133111904D02*
X137016190Y-133111904D01*
X137016190Y-132311904D01*
X136406666Y-132883333D02*
X136025714Y-132883333D01*
X136482857Y-133111904D02*
X136216190Y-132311904D01*
X135949523Y-133111904D01*
X92542380Y-122541904D02*
X92923333Y-122541904D01*
X92961428Y-122922857D01*
X92923333Y-122884761D01*
X92847142Y-122846666D01*
X92656666Y-122846666D01*
X92580476Y-122884761D01*
X92542380Y-122922857D01*
X92504285Y-122999047D01*
X92504285Y-123189523D01*
X92542380Y-123265714D01*
X92580476Y-123303809D01*
X92656666Y-123341904D01*
X92847142Y-123341904D01*
X92923333Y-123303809D01*
X92961428Y-123265714D01*
X92275714Y-122541904D02*
X92009047Y-123341904D01*
X91742380Y-122541904D01*
X153894761Y-132807142D02*
X153285238Y-132807142D01*
X156252380Y-133111904D02*
X156633333Y-133111904D01*
X156633333Y-132311904D01*
X155528571Y-133035714D02*
X155566666Y-133073809D01*
X155680952Y-133111904D01*
X155757142Y-133111904D01*
X155871428Y-133073809D01*
X155947619Y-132997619D01*
X155985714Y-132921428D01*
X156023809Y-132769047D01*
X156023809Y-132654761D01*
X155985714Y-132502380D01*
X155947619Y-132426190D01*
X155871428Y-132350000D01*
X155757142Y-132311904D01*
X155680952Y-132311904D01*
X155566666Y-132350000D01*
X155528571Y-132388095D01*
X103375238Y-78421904D02*
X103832380Y-78421904D01*
X103603809Y-78421904D02*
X103603809Y-77621904D01*
X103680000Y-77736190D01*
X103756190Y-77812380D01*
X103832380Y-77850476D01*
X103070476Y-77698095D02*
X103032380Y-77660000D01*
X102956190Y-77621904D01*
X102765714Y-77621904D01*
X102689523Y-77660000D01*
X102651428Y-77698095D01*
X102613333Y-77774285D01*
X102613333Y-77850476D01*
X102651428Y-77964761D01*
X103108571Y-78421904D01*
X102613333Y-78421904D01*
X102384761Y-77621904D02*
X102118095Y-78421904D01*
X101851428Y-77621904D01*
X134204761Y-132807142D02*
X133595238Y-132807142D01*
X144084761Y-132807142D02*
X143475238Y-132807142D01*
X163644761Y-132807142D02*
X163035238Y-132807142D01*
X146432380Y-133111904D02*
X146813333Y-133111904D01*
X146813333Y-132311904D01*
X145899047Y-132692857D02*
X145784761Y-132730952D01*
X145746666Y-132769047D01*
X145708571Y-132845238D01*
X145708571Y-132959523D01*
X145746666Y-133035714D01*
X145784761Y-133073809D01*
X145860952Y-133111904D01*
X146165714Y-133111904D01*
X146165714Y-132311904D01*
X145899047Y-132311904D01*
X145822857Y-132350000D01*
X145784761Y-132388095D01*
X145746666Y-132464285D01*
X145746666Y-132540476D01*
X145784761Y-132616666D01*
X145822857Y-132654761D01*
X145899047Y-132692857D01*
X146165714Y-132692857D01*
X166042380Y-133111904D02*
X166423333Y-133111904D01*
X166423333Y-132311904D01*
X165775714Y-133111904D02*
X165775714Y-132311904D01*
X165585238Y-132311904D01*
X165470952Y-132350000D01*
X165394761Y-132426190D01*
X165356666Y-132502380D01*
X165318571Y-132654761D01*
X165318571Y-132769047D01*
X165356666Y-132921428D01*
X165394761Y-132997619D01*
X165470952Y-133073809D01*
X165585238Y-133111904D01*
X165775714Y-133111904D01*
X123735238Y-90411904D02*
X124192380Y-90411904D01*
X123963809Y-90411904D02*
X123963809Y-89611904D01*
X124040000Y-89726190D01*
X124116190Y-89802380D01*
X124192380Y-89840476D01*
X123430476Y-89688095D02*
X123392380Y-89650000D01*
X123316190Y-89611904D01*
X123125714Y-89611904D01*
X123049523Y-89650000D01*
X123011428Y-89688095D01*
X122973333Y-89764285D01*
X122973333Y-89840476D01*
X123011428Y-89954761D01*
X123468571Y-90411904D01*
X122973333Y-90411904D01*
X122744761Y-89611904D02*
X122478095Y-90411904D01*
X122211428Y-89611904D01*
X98279523Y-77660000D02*
X98355714Y-77621904D01*
X98470000Y-77621904D01*
X98584285Y-77660000D01*
X98660476Y-77736190D01*
X98698571Y-77812380D01*
X98736666Y-77964761D01*
X98736666Y-78079047D01*
X98698571Y-78231428D01*
X98660476Y-78307619D01*
X98584285Y-78383809D01*
X98470000Y-78421904D01*
X98393809Y-78421904D01*
X98279523Y-78383809D01*
X98241428Y-78345714D01*
X98241428Y-78079047D01*
X98393809Y-78079047D01*
X97898571Y-78421904D02*
X97898571Y-77621904D01*
X97441428Y-78421904D01*
X97441428Y-77621904D01*
X97060476Y-78421904D02*
X97060476Y-77621904D01*
X96870000Y-77621904D01*
X96755714Y-77660000D01*
X96679523Y-77736190D01*
X96641428Y-77812380D01*
X96603333Y-77964761D01*
X96603333Y-78079047D01*
X96641428Y-78231428D01*
X96679523Y-78307619D01*
X96755714Y-78383809D01*
X96870000Y-78421904D01*
X97060476Y-78421904D01*
X96282380Y-93661904D02*
X96663333Y-93661904D01*
X96701428Y-94042857D01*
X96663333Y-94004761D01*
X96587142Y-93966666D01*
X96396666Y-93966666D01*
X96320476Y-94004761D01*
X96282380Y-94042857D01*
X96244285Y-94119047D01*
X96244285Y-94309523D01*
X96282380Y-94385714D01*
X96320476Y-94423809D01*
X96396666Y-94461904D01*
X96587142Y-94461904D01*
X96663333Y-94423809D01*
X96701428Y-94385714D01*
X96015714Y-93661904D02*
X95749047Y-94461904D01*
X95482380Y-93661904D01*
M02*
