%TF.GenerationSoftware,KiCad,Pcbnew,(6.0.2-0)*%
%TF.CreationDate,2022-05-20T12:12:44+02:00*%
%TF.ProjectId,Huge-Stepper-Driver,48756765-2d53-4746-9570-7065722d4472,rev?*%
%TF.SameCoordinates,Original*%
%TF.FileFunction,Soldermask,Bot*%
%TF.FilePolarity,Negative*%
%FSLAX46Y46*%
G04 Gerber Fmt 4.6, Leading zero omitted, Abs format (unit mm)*
G04 Created by KiCad (PCBNEW (6.0.2-0)) date 2022-05-20 12:12:44*
%MOMM*%
%LPD*%
G01*
G04 APERTURE LIST*
G04 Aperture macros list*
%AMRoundRect*
0 Rectangle with rounded corners*
0 $1 Rounding radius*
0 $2 $3 $4 $5 $6 $7 $8 $9 X,Y pos of 4 corners*
0 Add a 4 corners polygon primitive as box body*
4,1,4,$2,$3,$4,$5,$6,$7,$8,$9,$2,$3,0*
0 Add four circle primitives for the rounded corners*
1,1,$1+$1,$2,$3*
1,1,$1+$1,$4,$5*
1,1,$1+$1,$6,$7*
1,1,$1+$1,$8,$9*
0 Add four rect primitives between the rounded corners*
20,1,$1+$1,$2,$3,$4,$5,0*
20,1,$1+$1,$4,$5,$6,$7,0*
20,1,$1+$1,$6,$7,$8,$9,0*
20,1,$1+$1,$8,$9,$2,$3,0*%
G04 Aperture macros list end*
%ADD10C,0.150000*%
%ADD11R,1.700000X1.700000*%
%ADD12O,1.700000X1.700000*%
%ADD13R,2.500000X2.500000*%
%ADD14C,2.500000*%
%ADD15C,2.800000*%
%ADD16C,3.200000*%
%ADD17C,0.650000*%
%ADD18O,1.050000X2.100000*%
%ADD19O,1.000000X2.000000*%
%ADD20C,1.200000*%
%ADD21RoundRect,0.250000X-0.725000X0.600000X-0.725000X-0.600000X0.725000X-0.600000X0.725000X0.600000X0*%
%ADD22O,1.950000X1.700000*%
G04 APERTURE END LIST*
D10*
X186260000Y-110870000D02*
X189030000Y-110870000D01*
X189030000Y-110870000D02*
X189030000Y-115290000D01*
X189030000Y-115290000D02*
X186260000Y-115290000D01*
X186260000Y-115290000D02*
X186260000Y-110870000D01*
G36*
X186260000Y-110870000D02*
G01*
X189030000Y-110870000D01*
X189030000Y-115290000D01*
X186260000Y-115290000D01*
X186260000Y-110870000D01*
G37*
X90035000Y-111770000D02*
X92805000Y-111770000D01*
X92805000Y-111770000D02*
X92805000Y-116190000D01*
X92805000Y-116190000D02*
X90035000Y-116190000D01*
X90035000Y-116190000D02*
X90035000Y-111770000D01*
G36*
X90035000Y-111770000D02*
G01*
X92805000Y-111770000D01*
X92805000Y-116190000D01*
X90035000Y-116190000D01*
X90035000Y-111770000D01*
G37*
D11*
%TO.C,U5*%
X131317500Y-91871800D03*
D12*
X133857500Y-91871800D03*
X136397500Y-91871800D03*
X138937500Y-91871800D03*
X141477500Y-91871800D03*
X144017500Y-91871800D03*
X146557500Y-91871800D03*
X149097500Y-91871800D03*
X149097500Y-79171800D03*
X146557500Y-79171800D03*
X144017500Y-79171800D03*
X141477500Y-79171800D03*
X138937500Y-79171800D03*
X136397500Y-79171800D03*
X133857500Y-79171800D03*
X131317500Y-79171800D03*
%TD*%
D11*
%TO.C,J4*%
X136460000Y-135240000D03*
D12*
X133920000Y-135240000D03*
%TD*%
D13*
%TO.C,J1*%
X97750000Y-81150000D03*
D14*
X102750000Y-81150000D03*
%TD*%
D15*
%TO.C,TP4*%
X93000000Y-99560000D03*
%TD*%
D16*
%TO.C,H2*%
X184000000Y-82000000D03*
%TD*%
%TO.C,H1*%
X126000000Y-82000000D03*
%TD*%
D11*
%TO.C,J6*%
X156069840Y-135240000D03*
D12*
X153529840Y-135240000D03*
%TD*%
D11*
%TO.C,J14*%
X157227500Y-98680000D03*
D12*
X157227500Y-101220000D03*
X157227500Y-103760000D03*
X157227500Y-106300000D03*
%TD*%
D17*
%TO.C,J2*%
X171820000Y-131440000D03*
X177600000Y-131440000D03*
D18*
X170390000Y-130940000D03*
D19*
X170390000Y-135120000D03*
X179030000Y-135120000D03*
D18*
X179030000Y-130940000D03*
%TD*%
D11*
%TO.C,J5*%
X146264920Y-135240000D03*
D12*
X143724920Y-135240000D03*
%TD*%
D15*
%TO.C,TP1*%
X126760000Y-89980000D03*
%TD*%
D16*
%TO.C,H3*%
X126000000Y-131000000D03*
%TD*%
D11*
%TO.C,J8*%
X157227500Y-81721800D03*
D12*
X157227500Y-84261800D03*
X157227500Y-86801800D03*
X157227500Y-89341800D03*
%TD*%
D11*
%TO.C,J9*%
X165874760Y-135240000D03*
D12*
X163334760Y-135240000D03*
%TD*%
D11*
%TO.C,U8*%
X161134200Y-108830000D03*
D12*
X163674200Y-108830000D03*
X166214200Y-108830000D03*
X168754200Y-108830000D03*
X171294200Y-108830000D03*
X173834200Y-108830000D03*
X176374200Y-108830000D03*
X178914200Y-108830000D03*
X178914200Y-96130000D03*
X176374200Y-96130000D03*
X173834200Y-96130000D03*
X171294200Y-96130000D03*
X168754200Y-96130000D03*
X166214200Y-96130000D03*
X163674200Y-96130000D03*
X161134200Y-96130000D03*
%TD*%
D11*
%TO.C,U6*%
X161134200Y-91871800D03*
D12*
X163674200Y-91871800D03*
X166214200Y-91871800D03*
X168754200Y-91871800D03*
X171294200Y-91871800D03*
X173834200Y-91871800D03*
X176374200Y-91871800D03*
X178914200Y-91871800D03*
X178914200Y-79171800D03*
X176374200Y-79171800D03*
X173834200Y-79171800D03*
X171294200Y-79171800D03*
X168754200Y-79171800D03*
X166214200Y-79171800D03*
X163674200Y-79171800D03*
X161134200Y-79171800D03*
%TD*%
D11*
%TO.C,J13*%
X152790000Y-106280000D03*
D12*
X152790000Y-103740000D03*
X152790000Y-101200000D03*
X152790000Y-98660000D03*
%TD*%
D15*
%TO.C,TP2*%
X93050000Y-94120000D03*
%TD*%
D11*
%TO.C,J7*%
X152790000Y-89321800D03*
D12*
X152790000Y-86781800D03*
X152790000Y-84241800D03*
X152790000Y-81701800D03*
%TD*%
D11*
%TO.C,J3*%
X115850000Y-111850000D03*
D12*
X115850000Y-109310000D03*
X118390000Y-111850000D03*
X118390000Y-109310000D03*
X120930000Y-111850000D03*
X120930000Y-109310000D03*
X123470000Y-111850000D03*
X123470000Y-109310000D03*
%TD*%
D15*
%TO.C,TP3*%
X93050000Y-88450000D03*
%TD*%
D11*
%TO.C,U7*%
X131317500Y-108830000D03*
D12*
X133857500Y-108830000D03*
X136397500Y-108830000D03*
X138937500Y-108830000D03*
X141477500Y-108830000D03*
X144017500Y-108830000D03*
X146557500Y-108830000D03*
X149097500Y-108830000D03*
X149097500Y-96130000D03*
X146557500Y-96130000D03*
X144017500Y-96130000D03*
X141477500Y-96130000D03*
X138937500Y-96130000D03*
X136397500Y-96130000D03*
X133857500Y-96130000D03*
X131317500Y-96130000D03*
%TD*%
D16*
%TO.C,H4*%
X184000000Y-131000000D03*
%TD*%
D20*
%TO.C,J21*%
X92972600Y-121392000D03*
D21*
X94972600Y-122992000D03*
D22*
X94972600Y-125492000D03*
X94972600Y-127992000D03*
X94972600Y-130492000D03*
X94972600Y-132992000D03*
%TD*%
M02*
